# xmcd CD database file
#
# Track frame offsets:
# 150
# 2854
# 5160
# 7055
# 10128
# 12187
# 12691
# 13202
# 13760
# 14397
# 17999
# 21616
# 25228
# 28832
# 32430
# 36037
# 39660
# 43280
# 43730
# 44263
# 44737
# 45353
# 45962
# 46954
# 48050
# 50797
# 54096
# 60579
# 66142
# 71531
# 75011
# 78278
# 82023
# 84347
# 88137
# 92516
# 94903
# 98739
# 102252
# 104593
# 108369
# 111400
# 114939
# 119900
# 122363
# 126341
# 130661
# 133719
# 137732
# 140888
# 145016
# 148949
# 151475
# 154495
# 157313
# 158228
# 159115
# 159647
# 160802
# 161780
# 162531
# 163342
# 164410
# 165614
# 166761
# 168519
# 170223
# 171976
# 179552
# 191408
#
# Disc length: 2778 seconds
# Revision: 3
# Processed by: cddbd v1.5.2PL0 Copyright (c) Steve Scherf et al.
# Submitted via: MusicBin 0.4
#
DISCID=c80ad846
DTITLE=Thaddeus Hogarth - Funk/R&B Guitar: Creative Solos, Grooves
DTITLE=and Sounds
DYEAR=2008
DGENRE=Instructional
TTITLE0=CD 1
TTITLE1=CD 2
TTITLE2=CD 3
TTITLE3=CD 4
TTITLE4=CD 5
TTITLE5=CD 6
TTITLE6=CD 7
TTITLE7=CD 8
TTITLE8=CD 9
TTITLE9=CD 10
TTITLE10=CD 11
TTITLE11=CD 12
TTITLE12=CD 13
TTITLE13=CD 14
TTITLE14=CD 15
TTITLE15=CD 16
TTITLE16=CD 17
TTITLE17=CD 18
TTITLE18=CD 19
TTITLE19=CD 20
TTITLE20=CD 21
TTITLE21=CD 22
TTITLE22=CD 23
TTITLE23=CD 24
TTITLE24=CD 25
TTITLE25=CD 26
TTITLE26=CD 27
TTITLE27=CD 28
TTITLE28=CD 29
TTITLE29=CD 30
TTITLE30=CD 31
TTITLE31=CD 32
TTITLE32=CD 33
TTITLE33=CD 34
TTITLE34=CD 35
TTITLE35=CD 36
TTITLE36=CD 37
TTITLE37=CD 38
TTITLE38=CD 39
TTITLE39=CD 40
TTITLE40=CD 41
TTITLE41=CD 42
TTITLE42=CD 43
TTITLE43=CD 44
TTITLE44=CD 45
TTITLE45=CD 46
TTITLE46=CD 47
TTITLE47=CD 48
TTITLE48=CD 49
TTITLE49=CD 50
TTITLE50=CD 51
TTITLE51=CD 52
TTITLE52=CD 53
TTITLE53=CD 54
TTITLE54=CD 55
TTITLE55=CD 56
TTITLE56=CD 57
TTITLE57=CD 58
TTITLE58=CD 59
TTITLE59=CD 60
TTITLE60=CD 61
TTITLE61=CD 62
TTITLE62=CD 63
TTITLE63=CD 64
TTITLE64=CD 65
TTITLE65=CD 66
TTITLE66=CD 67
TTITLE67=CD 68
TTITLE68=CD 69
TTITLE69=CD 70
EXTD=
EXTT0=
EXTT1=
EXTT2=
EXTT3=
EXTT4=
EXTT5=
EXTT6=
EXTT7=
EXTT8=
EXTT9=
EXTT10=
EXTT11=
EXTT12=
EXTT13=
EXTT14=
EXTT15=
EXTT16=
EXTT17=
EXTT18=
EXTT19=
EXTT20=
EXTT21=
EXTT22=
EXTT23=
EXTT24=
EXTT25=
EXTT26=
EXTT27=
EXTT28=
EXTT29=
EXTT30=
EXTT31=
EXTT32=
EXTT33=
EXTT34=
EXTT35=
EXTT36=
EXTT37=
EXTT38=
EXTT39=
EXTT40=
EXTT41=
EXTT42=
EXTT43=
EXTT44=
EXTT45=
EXTT46=
EXTT47=
EXTT48=
EXTT49=
EXTT50=
EXTT51=
EXTT52=
EXTT53=
EXTT54=
EXTT55=
EXTT56=
EXTT57=
EXTT58=
EXTT59=
EXTT60=
EXTT61=
EXTT62=
EXTT63=
EXTT64=
EXTT65=
EXTT66=
EXTT67=
EXTT68=
EXTT69=
PLAYORDER=
